<svg xmlns="http://www.w3.org/2000/svg" width="23.447" height="23.447" viewBox="0 0 23.447 23.447">
  <g id="Icon_feather-instagram" data-name="Icon feather-instagram" transform="translate(-1.5 -1.5)">
    <path id="Path_3" data-name="Path 3" d="M8.112,3H18.335a5.112,5.112,0,0,1,5.112,5.112V18.335a5.112,5.112,0,0,1-5.112,5.112H8.112A5.112,5.112,0,0,1,3,18.335V8.112A5.112,5.112,0,0,1,8.112,3Z" fill="none" stroke="#fff" stroke-linecap="round" stroke-linejoin="round" stroke-width="3"/>
    <path id="Path_4" data-name="Path 4" d="M20.2,15.425a4.089,4.089,0,1,1-3.445-3.445A4.089,4.089,0,0,1,20.2,15.425Z" transform="translate(-2.887 -2.845)" fill="none" stroke="#fff" stroke-linecap="round" stroke-linejoin="round" stroke-width="3"/>
    <path id="Path_5" data-name="Path 5" d="M26.25,9.75h0" transform="translate(-7.404 -2.15)" fill="none" stroke="#fff" stroke-linecap="round" stroke-linejoin="round" stroke-width="3"/>
  </g>
</svg>
