<svg xmlns="http://www.w3.org/2000/svg" width="19" height="19" viewBox="0 0 19 19">
  <path id="Icon_ionic-md-call" data-name="Icon ionic-md-call" d="M22.444,17.694a12.389,12.389,0,0,1-3.747-.58.987.987,0,0,0-1.055.264L15.319,19.7a15.873,15.873,0,0,1-6.967-6.967l2.323-2.322a1.1,1.1,0,0,0,.264-1.056,11.48,11.48,0,0,1-.633-3.8A1.059,1.059,0,0,0,9.25,4.5H5.556A1.059,1.059,0,0,0,4.5,5.556,17.93,17.93,0,0,0,22.444,23.5,1.059,1.059,0,0,0,23.5,22.444V18.75A1.059,1.059,0,0,0,22.444,17.694Z" transform="translate(-4.5 -4.5)" fill="#28a745"/>
</svg>
